# xmcd CD database file
#
# Track frame offsets:
#	150
#	29325
#	58107
#	84526
#	109839
#	146946
#	181521
#	209796
#	237040
#
# Disc length: 3582 seconds
#
# Revision: 0
# Processed by: cddbd v1.5.2PL0 Copyright (c) Steve Scherf et al.
# Submitted via: CDex 1.51
#
DISCID=7e0dfc09
DTITLE=Grant Green - Gooden's Corner
DYEAR=1961
DGENRE=Jazz
TTITLE0=On Green Dolphin Street
TTITLE1=Shadrack
TTITLE2=What Is This Thimg Called Love?
TTITLE3=Moon River
TTITLE4=Gooden's Corner
TTITLE5=Two For One
TTITLE6=Count Every Star
TTITLE7=Untitled Blues
TTITLE8=Cantaloupe Woman
EXTD=YEAR: 1961
EXTT0=
EXTT1=
EXTT2=
EXTT3=
EXTT4=
EXTT5=
EXTT6=
EXTT7=
EXTT8=
PLAYORDER=
